<?xml version="1.0" encoding="UTF-8"?>
<svg width="128px" height="132px" viewBox="0 0 128 132" version="1.1" xmlns="http://www.w3.org/2000/svg" xmlns:xlink="http://www.w3.org/1999/xlink">
    <!-- Generator: Sketch 52.6 (67491) - http://www.bohemiancoding.com/sketch -->
    <title>Group</title>
    <desc>Created with Sketch.</desc>
    <defs>
        <polygon id="path-1" points="0 75.4148677 102.706223 75.4148677 102.706223 0.223705382 0 0.223705382"></polygon>
    </defs>
    <g id="Page-1" stroke="none" stroke-width="1" fill="none" fill-rule="evenodd">
        <g id="Home-V2" transform="translate(-200.000000, 0.000000)">
            <g id="Group" transform="translate(200.000000, 0.000000)">
                <rect id="Rectangle" fill="#E4272C" x="0" y="0" width="128" height="132"></rect>
                <g id="logo" transform="translate(12.631579, 28.585987)">
                    <polygon id="Fill-1" fill="#FDFDFD" points="0.3555049 65.632696 0.3555049 67.4345273 4.3194769 67.4345273 -2.53046409e-05 75.2037822 7.44738356 75.2037822 7.44738356 73.4524814 3.39104962 73.4524814 7.72978335 65.632696"></polygon>
                    <polygon id="Fill-2" fill="#FDFDFD" points="9.49364335 65.632696 9.49364335 75.2037822 16.1449682 75.2037822 16.1449682 73.4123617 11.7958596 73.4123617 11.7958596 70.8985328 16.1449682 70.8985328 16.1449682 69.1467241 11.7958596 69.1467241 11.7958596 67.4162449 16.1449682 67.4162449 16.1449682 65.632696"></polygon>
                    <polygon id="Fill-3" fill="#FDFDFD" points="25.7546333 65.632696 25.7546333 71.9309801 20.5378286 65.632696 18.3158281 65.632696 18.3158281 75.2037822 20.6337332 75.2037822 20.6337332 68.9240345 25.8437057 75.2037822 28.0760811 75.2037822 28.0760811 65.632696"></polygon>
                    <g id="Group-21" transform="translate(0.000000, 0.030217)">
                        <path d="M46.85091,67.1646335 L45.2172424,68.4337362 C44.1815235,67.577257 42.9798061,67.1438119 41.6022214,67.1438119 C40.4025284,67.1438119 39.3994524,67.4579136 38.5891978,68.0818002 C37.7784371,68.7054329 37.3768525,69.4659296 37.3768525,70.3574502 C37.3768525,71.2822345 37.7979217,72.0627911 38.6352523,72.7087689 C39.4728359,73.347637 40.5143749,73.6698641 41.7441805,73.6698641 C42.5440602,73.6698641 43.2204532,73.5390943 43.7710822,73.2742535 C44.3214581,73.0101745 44.7673259,72.5950118 45.1053959,72.0297812 L41.5733741,72.0297812 L41.5733741,70.3175844 L47.7029173,70.3175844 L47.7211366,70.723098 C47.7211366,71.5572322 47.4430386,72.3553094 46.8913975,73.1051414 C46.337985,73.8531959 45.6259124,74.4227432 44.7475883,74.8201313 C43.8695172,75.2167577 42.8396184,75.4148169 41.6566264,75.4148169 C40.3934187,75.4148169 39.2681213,75.195936 38.273902,74.7703626 C37.2847436,74.3333626 36.4982753,73.7188711 35.9210765,72.92054 C35.3438776,72.1222089 35.0551517,71.26446 35.0551517,70.335105 C35.0551517,69.0726043 35.5862961,67.9708362 36.6528867,67.0341176 C37.9224205,65.9201612 39.560643,65.3628022 41.5915935,65.3628022 C42.6503396,65.3628022 43.6400041,65.5156633 44.5631174,65.8236708 C45.3437656,66.0821636 46.103917,66.5295743 46.85091,67.1646335" id="Fill-4" fill="#FFFFFF"></path>
                        <path d="M54.7563835,68.1394151 L53.1244872,71.4251673 L56.3814475,71.4251673 L54.7563835,68.1394151 Z M53.5663062,65.6024793 L55.9193848,65.6024793 L60.6075756,75.1735655 L58.1957903,75.1735655 L57.2418053,73.2008446 L52.2704556,73.2008446 L51.2785137,75.1735655 L48.8662222,75.1735655 L53.5663062,65.6024793 Z" id="Fill-6" fill="#FFFFFF"></path>
                        <path d="M64.8727994,69.3430567 L65.6023322,69.3430567 C66.3407216,69.3430567 66.8516223,69.2663722 67.1239002,69.1165582 C67.4012391,68.9644589 67.5411738,68.7110446 67.5411738,68.357585 C67.5411738,68.1501306 67.4743695,67.9678146 67.3336757,67.8119064 C67.1980428,67.6595531 67.0148372,67.5498588 66.7830467,67.4792684 C66.5532806,67.4109634 66.1281626,67.3804927 65.5094641,67.3804927 L64.8727994,67.3804927 L64.8727994,69.3430567 Z M62.5564125,65.602784 L65.0142523,65.602784 C66.3579288,65.602784 67.3182399,65.6982587 67.8891126,65.8856532 C68.4589731,66.0750791 68.9190115,66.3871494 69.2644198,66.8269425 C69.6133708,67.265466 69.7874667,67.7824514 69.7874667,68.3799302 C69.7874667,69.0104188 69.5941393,69.5367993 69.2125453,69.9560247 C68.82918,70.3793129 68.2454019,70.7025557 67.4753817,70.9181356 L70.3641595,75.1736163 L67.8293936,75.1736163 L65.0873827,71.1174645 L64.8727994,71.1174645 L64.8727994,75.1736163 L62.5564125,75.1736163 L62.5564125,65.602784 Z" id="Fill-8" fill="#FFFFFF"></path>
                        <path d="M74.5503316,67.3600266 L74.5503316,73.3960091 L75.6272971,73.3960091 C76.6878146,73.3960091 77.4540391,73.3015501 77.9363456,73.1088232 C78.4118198,72.9163503 78.8017643,72.597678 79.1092157,72.1484898 C79.4105939,71.6972702 79.563434,71.1399112 79.563434,70.478698 C79.563434,69.4630095 79.2010715,68.6720421 78.4755875,68.1164606 C77.8260173,67.6106477 76.7778991,67.3600266 75.3375589,67.3600266 L74.5503316,67.3600266 Z M72.2471031,65.6023777 L74.994681,65.6023777 C76.7675242,65.6023777 78.0810881,65.7745369 78.9416989,66.1221563 C79.8045872,66.4644433 80.5118519,67.026119 81.0672888,67.8015971 C81.62475,68.5806302 81.9058846,69.4828155 81.9058846,70.5221187 C81.9058846,71.2590006 81.750261,71.9364648 81.4385079,72.5560348 C81.123212,73.1717959 80.6965758,73.6829411 80.1484773,74.0927714 C79.5958239,74.4998086 79.0049605,74.7842013 78.3652592,74.9365546 C77.7258109,75.0929706 76.6146842,75.1734639 75.0351685,75.1734639 L72.2471031,75.1734639 L72.2471031,65.6023777 Z" id="Fill-10" fill="#FFFFFF"></path>
                        <polygon id="Fill-12" fill="#FFFFFF" points="84.1260632 65.6024031 90.7743515 65.6024031 90.7743515 67.385952 86.4252428 67.385952 86.4252428 69.1166852 90.7743515 69.1166852 90.7743515 70.8682399 86.4252428 70.8682399 86.4252428 73.3820688 90.7743515 73.3820688 90.7743515 75.1734893 84.1260632 75.1734893"></polygon>
                        <polygon id="Fill-14" fill="#FFFFFF" points="92.9471092 65.6024031 95.171134 65.6024031 100.384902 71.9009411 100.384902 65.6024031 102.706097 65.6024031 102.706097 75.1734893 100.473722 75.1734893 95.2645082 68.8937415 95.2645082 75.1734893 92.9471092 75.1734893"></polygon>
                        <mask id="mask-2" fill="white">
                            <use xlink:href="#path-1"></use>
                        </mask>
                        <g id="Clip-17"></g>
                        <polygon id="Fill-16" fill="#918C84" mask="url(#mask-2)" points="20.9722333 61.196245 81.7344962 61.196245 81.7344962 0.223705382 20.9722333 0.223705382"></polygon>
                        <path d="M77.73072,30.7154091 C77.73072,45.305012 65.9200319,57.1334658 51.3516441,57.1334658 C36.7883171,57.1334658 24.9758577,45.305012 24.9758577,30.7154091 C24.9758577,16.1184425 36.7883171,4.28617988 51.3516441,4.28617988 C65.9200319,4.28617988 77.73072,16.1184425 77.73072,30.7154091" id="Fill-18" fill="#E4272C" mask="url(#mask-2)"></path>
                        <path d="M73.6295969,34.7736939 C73.6295969,45.0065012 65.3299277,53.2993435 55.0974901,53.2993435 C44.8635341,53.2993435 36.5671546,45.0065012 36.5671546,34.7736939 C36.5671546,24.5391092 44.8635341,16.2477905 55.0974901,16.2477905 C65.3299277,16.2477905 73.6295969,24.5391092 73.6295969,34.7736939" id="Fill-19" fill="#FEFEFE" mask="url(#mask-2)"></path>
                        <path d="M69.9940285,39.0062962 C69.9940285,45.1961556 65.0922665,50.2083242 59.0409147,50.2083242 C52.9928525,50.2083242 48.0847643,45.1961556 48.0847643,39.0062962 C48.0847643,32.8248163 52.9928525,27.8057918 59.0409147,27.8057918 C65.0922665,27.8057918 69.9940285,32.8248163 69.9940285,39.0062962" id="Fill-20" fill="#E4272C" mask="url(#mask-2)"></path>
                    </g>
                </g>
            </g>
        </g>
    </g>
</svg>